<svg xmlns="http://www.w3.org/2000/svg" viewBox="0 0 356.24 56.1"><defs><style>.a{fill:#fff;}.b{fill:#fec24d;}</style></defs><title>UMass Dartmouth</title><rect class="a" x="197.04" y="15.32" width="2" height="40.78"/><path class="a" d="M96.31,27.51c0,2.79-.76,5.16-3.64,5.16S89,30.3,89,27.51V15.33H83.4V28.45c0,5.79,3.75,8.4,9.27,8.4s9.28-2.61,9.28-8.4V15.33H96.31Z"/><polygon class="a" points="119.47 29.39 119.41 29.39 114.92 15.33 106.04 15.33 106.04 36.49 111.56 36.49 111.43 20.24 111.49 20.24 116.65 36.49 121.83 36.49 127.23 20.24 127.29 20.24 127.2 36.49 132.71 36.49 132.71 15.33 124.16 15.33 119.47 29.39"/><path class="a" d="M151.87,26.88c0-4.82-3.49-6.55-7.52-6.55a16.28,16.28,0,0,0-6.3,1.12l.09,3.7a10.22,10.22,0,0,1,5-1.18c2,0,3.58.57,3.61,2.72a16.23,16.23,0,0,0-2.55-.21c-2.91,0-8.15.58-8.15,5.4,0,3.43,2.79,5,5.91,5A5.42,5.42,0,0,0,147,34h.06c0,.82.09,1.64.12,2.49h5a19.56,19.56,0,0,1-.3-3.73Zm-8.46,6.33c-1.27,0-2.24-.63-2.24-1.73,0-1.51,1.46-2.09,3.31-2.09.81,0,1.6.06,2.3.09A3.55,3.55,0,0,1,143.41,33.21Z"/><path class="a" d="M160.33,25.06c0-.88,1.33-1.09,2.51-1.09A8.9,8.9,0,0,1,167.09,25l.42-3.79a15,15,0,0,0-5.55-.91c-3.15,0-6.72,1.48-6.72,5.12,0,5.7,7.75,3.82,7.75,6.49,0,1.09-1.09,1.27-2.21,1.27a13.4,13.4,0,0,1-5.12-1.09l-.3,4a17.63,17.63,0,0,0,5.72.76c3.58,0,7.37-1.06,7.37-5.27C168.45,25.57,160.33,27.51,160.33,25.06Z"/><path class="a" d="M176.09,25.06c0-.88,1.33-1.09,2.51-1.09A8.87,8.87,0,0,1,182.85,25l.42-3.79a14.89,14.89,0,0,0-5.54-.91c-3.16,0-6.73,1.48-6.73,5.12,0,5.7,7.76,3.82,7.76,6.49,0,1.09-1.09,1.27-2.22,1.27a13.4,13.4,0,0,1-5.12-1.09l-.3,4a17.65,17.65,0,0,0,5.73.76c3.57,0,7.36-1.06,7.36-5.27C184.21,25.57,176.09,27.51,176.09,25.06Z"/><path class="a" d="M218,34h-5.24V55.12h3.69c7,0,12.13-2.95,12.13-10.62C228.6,38.32,225.6,34,218,34ZM216.59,53.3h-1.72V35.78h3.06c4.73,0,8.58,2.15,8.58,8.6S222.6,53.3,216.59,53.3Z"/><path class="a" d="M243.57,45.05c0-4-1.6-5.76-5.42-5.76a12.27,12.27,0,0,0-4.55,1.06V42.2a8.21,8.21,0,0,1,4.55-1.27c2.58,0,3.51,1.33,3.51,4v.79h-.36c-4,0-9.52.24-9.52,5.42,0,1.4.7,4.37,5.09,4.37a5.44,5.44,0,0,0,4.92-2.85h.06v2.49h1.87a22.31,22.31,0,0,1-.15-3.25Zm-1.91,3.21c0,1.67-.09,5.58-4.57,5.58-1.76,0-3.22-.76-3.22-2.79,0-3.39,3.94-3.73,7.25-3.73h.54Z"/><path class="a" d="M250.73,42.63h-.06v-3h-1.91a28,28,0,0,1,.12,3.45v12h1.91V47.48c0-2.79.82-6.19,3.85-6.19a4.67,4.67,0,0,1,1.39.19v-2a5.7,5.7,0,0,0-1.33-.18C252.73,39.29,251.42,40.9,250.73,42.63Z"/><path class="a" d="M266.46,53.84c-1.55,0-2.06-1.15-2.06-2.54v-10h3.51V39.66H264.4v-4.4l-1.91.67v3.73h-3v1.63h3v9c0,2.82.12,5.15,3.52,5.15a7,7,0,0,0,2.33-.42l-.12-1.58A4.48,4.48,0,0,1,266.46,53.84Z"/><path class="a" d="M287.8,39.29a5.18,5.18,0,0,0-4.94,3.28h-.06a3.9,3.9,0,0,0-4.09-3.28,4.85,4.85,0,0,0-4.82,3l-.06,0v-2.6H272c.12,1.24.12,2.45.12,3.63V55.12H274V46.57c0-3.85,2.06-5.64,4.15-5.64,2.46,0,3.27,1.73,3.27,3.91V55.12h1.91V46.57c0-3.85,2.06-5.64,4.16-5.64,2.45,0,3.27,1.73,3.27,3.91V55.12h1.91V44.47C292.68,41.48,290.92,39.29,287.8,39.29Z"/><path class="a" d="M304.14,39.29c-5,0-7.22,3.88-7.22,8.09s2.21,8.1,7.22,8.1,7.21-3.88,7.21-8.1S309.14,39.29,304.14,39.29Zm0,14.55c-3.34,0-5.13-2.88-5.13-6.46s1.79-6.45,5.13-6.45,5.12,2.88,5.12,6.45S307.47,53.84,304.14,53.84Z"/><path class="a" d="M327.78,39.66h-1.91V48.2c0,2.58-1.09,5.64-4.58,5.64-2.64,0-3.66-1.88-3.66-4.79V39.66h-1.91v9.88c0,3.39,1.45,5.94,5.27,5.94a4.9,4.9,0,0,0,5-3.12h.06v2.76h1.85c-.12-1.25-.12-2.46-.12-3.64Z"/><path class="a" d="M338.54,53.84c-1.55,0-2.06-1.15-2.06-2.54v-10H340V39.66h-3.52v-4.4l-1.91.67v3.73h-3v1.63h3v9c0,2.82.12,5.15,3.52,5.15a7,7,0,0,0,2.33-.42l-.12-1.58A4.48,4.48,0,0,1,338.54,53.84Z"/><path class="a" d="M351,39.29a5.25,5.25,0,0,0-4.82,3h-.06V32.38h-1.91V55.12h1.91V46.84c0-2.7,1.18-5.91,4.57-5.91,3.16,0,3.67,2.3,3.67,5v9.22h1.91V45.87C356.24,42.05,355.12,39.29,351,39.29Z"/><path class="b" d="M3.43,51a4.9,4.9,0,0,1-.06-.77c0-10.13,26.72-30,26.72-36.43a2.15,2.15,0,0,0-.26-1.07C29.11,11.44,27,11,24.82,11,19.19,11,3.54,17.77,3.54,27.76a6.28,6.28,0,0,0,.67,3c1,1.85,3,3,6,3.71h0c-3.46,2-8.83.41-10.08-2.73A3.17,3.17,0,0,1,0,31.3v24H6.69A5.8,5.8,0,0,1,3.43,51Z"/><path class="b" d="M5,19A29.23,29.23,0,0,1,27,9.48a21,21,0,0,1,2.48.14,14.42,14.42,0,0,1,2,.37,10.83,10.83,0,0,1,1.48.46L23.78,0H0V26.94c.1-.27.21-.56.34-.86A24.79,24.79,0,0,1,5,19Z"/><path class="b" d="M24.53,55.26V49A34.25,34.25,0,0,1,13,55.26Z"/><path class="b" d="M43.85,0,34.16,11.1a5.73,5.73,0,0,1,2.13,2.19,4.08,4.08,0,0,1,.46,1.81c0,1.46-1.13,3.57-2.93,6.07a110.66,110.66,0,0,1-7.29,8.73l-2,2.19c-7.25,7.93-15,16-15,19.43a2,2,0,0,0,.2,1c.31.55,1,.69,2,.69a15.45,15.45,0,0,0,7.35-2.45l.18-.1.36-.21c1-.62,2.06-1.33,3.12-2.11l.22-.16.06,0,1-.81c.19-.14.38-.28.56-.44a122.33,122.33,0,0,0,9.18-8.77s.65-.7,1.6-1.74c1.67-1.83,4.29-4.73,6-6.79.42-.5.79-.94,1.08-1.32h0c1.82-2.3,3.54-4.46,5.08-6.39l4.77-6c2.59-.42,5.65-.1,8.41-.37h0A80.07,80.07,0,0,0,55,23.21c-1.78,2.62-3.65,5.56-5.44,8.6a131.42,131.42,0,0,0-6.48,12.31l-.45,1.12c-.34.85-.63,1.66-.89,2.44-.12.33-.22.64-.3.92A10.3,10.3,0,0,0,41,51.5,3.33,3.33,0,0,0,41,52s0,0,0,.07a2.9,2.9,0,0,0,.36,1.11,3.08,3.08,0,0,0,1.76,1.17,4.08,4.08,0,0,0,1.34.16c4.06,0,9.43-6.18,9.43-13.35A5.2,5.2,0,0,1,55.5,43,5.09,5.09,0,0,1,56,45.27c0,4.4-3.56,8.29-8.09,10H67.63V0Z"/></svg>
